# xmcd
#
# Track frame offsets:
#	150
#	14041
#	27510
#	45593
#	59527
#	73920
#	90728
#	104722
#	120223
#	131409
#	148653
#	163494
#	176115
#	185033
#	193469
#
# Disc length: 2726 seconds
#
# Revision: 5
# Processed by: cddbd v1.5.2PL0 Copyright (c) Steve Scherf et al.
# Submitted via: EasyCDDAExtractor 15.3.0.1
#
DISCID=f00aa40f
DTITLE=The Music Of Nashville - Season 1, Volume 1
DYEAR=2012
DGENRE=Country
TTITLE0=Connie Britton - Buried Under
TTITLE1=Sam Palladio, Clare Bowen - If I Didn't Know Better
TTITLE2=Hayden Panettiere, Charles Esten - Undermine
TTITLE3=Charles Esten - Sideshow
TTITLE4=Connie Britton, Hayden Panettiere - Wrong Song
TTITLE5=Connie Britton, Charles Esten - No One Will Ever Love You
TTITLE6=Jonathan Jackson - Twist Of Barbwire
TTITLE7=Hayden Panettiere - Love Like Mine
TTITLE8=Lennon Stella, Maisy Stella - Telescope
TTITLE9=Clare Bowen, Sam Palladio - When The Right One Comes Along
TTITLE10=Hayden Panettiere - Telescope (Radio Mix)
TTITLE11=Sam Palladio - I'll Be There
TTITLE12=Clare Bowen - Love's Ring Of Fire
TTITLE13=Hayden Panettiere, Charles Esten - Undermine (Acoustic Version)
TTITLE14=Connie Britton - Changing Ground
EXTD=
EXTT0=
EXTT1=
EXTT2=
EXTT3=
EXTT4=
EXTT5=
EXTT6=
EXTT7=
EXTT8=
EXTT9=
EXTT10=
EXTT11=
EXTT12=
EXTT13=
EXTT14=
PLAYORDER=
